<svg version="1.1" id="Layer_1" xmlns="http://www.w3.org/2000/svg" xmlns:xlink="http://www.w3.org/1999/xlink" x="0px" y="0px"
	 width="100%" viewBox="0 0 384 384" enable-background="new 0 0 384 384" xml:space="preserve">
<path fill="#000000" opacity="1.000000" stroke="none" 
	d="
M213.000000,385.000000 
	C142.000015,385.000000 71.500023,385.000000 1.000028,385.000000 
	C1.000019,257.000031 1.000019,129.000076 1.000009,1.000080 
	C128.999939,1.000053 256.999878,1.000053 384.999878,1.000027 
	C384.999908,128.999924 384.999908,256.999847 384.999939,384.999878 
	C327.833344,385.000000 270.666656,385.000000 213.000000,385.000000 
M167.843231,361.809845 
	C170.748871,365.653076 173.654510,369.496277 177.078506,374.025116 
	C179.764404,369.134766 181.952713,365.150360 185.052094,361.032379 
	C198.307007,361.021454 211.563339,361.103241 224.815399,360.903229 
	C226.885925,360.871979 228.937073,359.558197 231.612732,359.152161 
	C236.212234,362.290100 240.811737,365.428009 245.976685,368.951721 
	C250.099777,356.081055 253.947464,344.069031 257.795807,332.057190 
	C260.361084,324.050171 263.195953,322.340515 271.406036,323.434448 
	C278.421997,324.369293 285.469055,325.070770 292.980286,325.930145 
	C291.294312,318.027557 289.663940,310.896973 288.310638,303.714172 
	C287.930359,301.695709 287.576843,298.990204 288.572052,297.522949 
	C291.524445,293.170135 294.585571,288.567505 298.620575,285.328949 
	C315.378387,271.878784 332.528320,258.917877 349.468262,245.692810 
	C350.767120,244.678787 352.664215,242.723206 352.399689,241.685318 
	C350.324951,233.544769 347.790344,225.521408 344.988708,216.085083 
	C337.959839,230.430756 331.583496,243.444595 324.990784,256.900024 
	C320.794098,253.233032 317.393677,250.047165 313.757111,247.158569 
	C311.272064,245.184677 310.396454,243.049072 310.859100,239.843643 
	C312.778442,226.544479 312.205292,213.282578 310.060303,200.026794 
	C309.603577,197.204208 309.846100,194.039413 310.633118,191.279373 
	C320.719116,155.907623 330.972748,120.583679 341.136017,85.233841 
	C341.625641,83.530739 341.671021,81.699905 342.087524,80.001579 
	C342.087524,80.001579 342.218048,79.822281 342.218048,79.822281 
	C342.218048,79.822281 341.985107,80.016594 341.287018,80.099808 
	C318.847717,93.198868 296.228333,106.004326 274.086212,119.587761 
	C267.970032,123.339836 263.988159,123.482208 258.609131,118.770981 
	C255.318527,115.888908 253.853653,113.457512 254.392685,109.154335 
	C254.894119,105.151184 254.499710,101.035820 254.499710,96.359192 
	C249.682693,99.177429 245.296112,101.820648 240.824051,104.310295 
	C239.590546,104.997009 237.863083,105.926369 236.768845,105.552948 
	C228.681137,102.792976 220.696259,99.731606 212.158356,96.572342 
	C242.356277,71.842751 272.193817,47.408279 302.031342,22.973814 
	C301.781342,22.573076 301.531342,22.172340 301.281311,21.771605 
	C239.393936,52.012074 177.506531,82.252541 114.583771,112.998932 
	C119.521622,97.092522 125.894737,83.144028 135.455383,69.781929 
	C124.371071,72.419693 119.961502,65.637558 116.142441,56.801056 
	C111.152374,64.714966 106.578590,71.422073 102.609291,78.469627 
	C100.245361,82.666832 97.301437,84.844765 92.476425,85.140755 
	C88.944733,85.357414 85.462677,86.383148 81.176704,87.196648 
	C89.321136,98.583878 96.937019,109.232109 105.090034,120.631348 
	C100.493332,123.735771 96.588684,128.361252 92.095566,129.029388 
	C79.306808,130.931107 66.273979,131.165451 53.345814,132.167084 
	C47.294018,132.635971 41.262032,133.360504 34.436066,134.048248 
	C44.133831,145.917770 53.233261,157.054947 62.810379,168.776794 
	C53.999287,171.957474 46.109261,174.805649 37.156399,178.037491 
	C43.593292,181.985947 49.001667,185.461670 54.574150,188.650589 
	C57.108513,190.100906 57.846539,191.526611 57.263561,194.596924 
	C55.868603,201.943619 55.120407,209.413101 53.167381,216.978790 
	C46.673473,216.985977 40.179562,216.989151 33.685665,217.001526 
	C27.634411,217.013077 25.004005,219.597504 25.003239,225.577835 
	C24.997831,267.704926 24.999199,309.832031 25.001562,351.959106 
	C25.001936,358.618591 27.432051,360.988403 34.221672,361.000580 
	C64.190071,361.054382 94.158478,361.111603 124.292747,361.860657 
	C125.157532,364.268738 126.022308,366.676788 127.148270,369.812134 
	C130.094299,366.509644 132.477386,363.838196 135.805542,361.021759 
	C146.386612,361.069824 156.967682,361.117889 167.843231,361.809845 
z"/>
<path fill="#B43333" opacity="1.000000" stroke="none" 
	d="
M54.111107,216.833023 
	C55.120407,209.413101 55.868603,201.943619 57.263561,194.596924 
	C57.846539,191.526611 57.108513,190.100906 54.574150,188.650589 
	C49.001667,185.461670 43.593292,181.985947 37.156399,178.037491 
	C46.109261,174.805649 53.999287,171.957474 62.810379,168.776794 
	C53.233261,157.054947 44.133831,145.917770 34.436066,134.048248 
	C41.262032,133.360504 47.294018,132.635971 53.345814,132.167084 
	C66.273979,131.165451 79.306808,130.931107 92.095566,129.029388 
	C96.588684,128.361252 100.493332,123.735771 105.090034,120.631348 
	C96.937019,109.232109 89.321136,98.583878 81.176704,87.196648 
	C85.462677,86.383148 88.944733,85.357414 92.476425,85.140755 
	C97.301437,84.844765 100.245361,82.666832 102.609291,78.469627 
	C106.578590,71.422073 111.152374,64.714966 116.142441,56.801056 
	C119.961502,65.637558 124.371071,72.419693 135.455383,69.781929 
	C125.894737,83.144028 119.521622,97.092522 114.583771,112.998932 
	C177.506531,82.252541 239.393936,52.012074 301.281311,21.771605 
	C301.531342,22.172340 301.781342,22.573076 302.031342,22.973814 
	C272.193817,47.408279 242.356277,71.842751 212.158356,96.572342 
	C220.696259,99.731606 228.681137,102.792976 236.768845,105.552948 
	C237.863083,105.926369 239.590546,104.997009 240.824051,104.310295 
	C245.296112,101.820648 249.682693,99.177429 254.499710,96.359192 
	C254.499710,101.035820 254.894119,105.151184 254.392685,109.154335 
	C253.853653,113.457512 255.318527,115.888908 258.609131,118.770981 
	C263.988159,123.482208 267.970032,123.339836 274.086212,119.587761 
	C296.228333,106.004326 318.847717,93.198868 341.621918,80.035255 
	C341.956818,79.970703 341.923248,79.928551 341.923248,79.928551 
	C341.671021,81.699905 341.625641,83.530739 341.136017,85.233841 
	C330.972748,120.583679 320.719116,155.907623 310.633118,191.279373 
	C309.846100,194.039413 309.603577,197.204208 310.060303,200.026794 
	C312.205292,213.282578 312.778442,226.544479 310.859100,239.843643 
	C310.396454,243.049072 311.272064,245.184677 313.757111,247.158569 
	C317.393677,250.047165 320.794098,253.233032 324.990784,256.900024 
	C331.583496,243.444595 337.959839,230.430756 344.988708,216.085083 
	C347.790344,225.521408 350.324951,233.544769 352.399689,241.685318 
	C352.664215,242.723206 350.767120,244.678787 349.468262,245.692810 
	C332.528320,258.917877 315.378387,271.878784 298.620575,285.328949 
	C294.585571,288.567505 291.524445,293.170135 288.572052,297.522949 
	C287.576843,298.990204 287.930359,301.695709 288.310638,303.714172 
	C289.663940,310.896973 291.294312,318.027557 292.980286,325.930145 
	C285.469055,325.070770 278.421997,324.369293 271.406036,323.434448 
	C263.195953,322.340515 260.361084,324.050171 257.795807,332.057190 
	C253.947464,344.069031 250.099777,356.081055 245.976685,368.951721 
	C240.811737,365.428009 236.212234,362.290100 231.482300,358.653137 
	C231.901077,356.366119 232.901779,354.584534 232.927383,352.789062 
	C233.116241,339.540375 233.110626,326.288849 233.482193,312.924255 
	C277.757721,286.596863 295.581940,233.345749 276.238220,186.017548 
	C257.252319,139.564835 206.690491,113.972160 157.588791,125.983871 
	C116.291122,136.086487 84.106773,171.636749 79.805969,216.902863 
	C70.919571,216.926910 62.515339,216.879974 54.111107,216.833023 
M114.499603,113.479149 
	C114.499603,113.479149 114.445847,113.358109 114.499603,113.479149 
z"/>
<path fill="#31A8FF" opacity="1.000000" stroke="none" 
	d="
M233.166229,313.038239 
	C233.110626,326.288849 233.116241,339.540375 232.927383,352.789062 
	C232.901779,354.584534 231.901077,356.366119 231.174530,358.495789 
	C228.937073,359.558197 226.885925,360.871979 224.815399,360.903229 
	C211.563339,361.103241 198.307007,361.021454 184.123688,361.028870 
	C177.979767,361.072235 172.764267,361.119110 167.548752,361.165985 
	C156.967682,361.117889 146.386612,361.069824 134.891296,361.025513 
	C130.693665,361.075378 127.410271,361.121490 124.126877,361.167603 
	C94.158478,361.111603 64.190071,361.054382 34.221672,361.000580 
	C27.432051,360.988403 25.001936,358.618591 25.001562,351.959106 
	C24.999199,309.832031 24.997831,267.704926 25.003239,225.577835 
	C25.004005,219.597504 27.634411,217.013077 33.685665,217.001526 
	C40.179562,216.989151 46.673473,216.985977 53.639244,216.905914 
	C62.515339,216.879974 70.919571,216.926910 80.249680,216.968643 
	C128.763565,216.975800 176.351562,216.987396 223.939575,217.001450 
	C230.599762,217.003418 232.987946,219.437210 233.000397,226.191330 
	C233.053787,255.140305 233.110641,284.089264 233.166229,313.038239 
M109.246651,297.044769 
	C96.866219,297.084930 84.485794,297.125092 71.162766,297.034760 
	C61.237873,297.034760 51.312981,297.034760 41.397320,297.034760 
	C41.397320,313.354065 41.397320,329.050110 41.397320,344.839355 
	C67.416046,344.839355 93.036766,344.839355 119.398758,344.923492 
	C119.931450,343.938354 120.922310,342.955414 120.927040,341.967743 
	C120.984062,330.090515 120.895096,318.212616 120.971245,305.372223 
	C120.971245,302.637817 120.971245,299.903412 120.971245,297.168549 
	C116.835449,297.168549 113.518875,297.168549 109.246651,297.044769 
M41.035442,267.904755 
	C41.035442,272.154968 41.035442,276.405212 41.035442,280.834717 
	C48.805050,280.834717 55.918934,280.834717 63.959179,280.954437 
	C74.759277,280.912598 85.559380,280.870758 97.229164,280.951202 
	C104.979645,280.951202 112.730118,280.951202 120.720650,280.951202 
	C120.720650,264.812714 120.720650,249.154678 120.720650,233.169754 
	C107.052589,233.169754 93.660530,233.169754 79.304832,233.042618 
	C71.039932,233.086044 62.775028,233.129486 53.672695,233.042969 
	C49.597107,233.042969 45.521519,233.042969 41.167427,233.042969 
	C41.167427,237.655594 41.167427,241.740860 41.041924,246.777740 
	C41.083397,253.510239 41.124870,260.242737 41.035442,267.904755 
M137.042847,317.758057 
	C137.042847,326.675110 137.042847,335.592163 137.042847,344.654663 
	C163.940216,344.654663 190.249374,344.654663 216.833221,344.654663 
	C216.833221,336.539917 216.833221,328.765717 216.956802,320.062531 
	C216.956802,312.476898 216.956802,304.891266 216.956802,297.422180 
	C189.912659,297.422180 163.558823,297.422180 137.167389,297.422180 
	C137.167389,304.161652 137.167389,310.478485 137.042847,317.758057 
M198.499329,281.000000 
	C204.587006,281.000000 210.674683,281.000000 216.690536,281.000000 
	C216.690536,264.613800 216.690536,249.023987 216.690536,233.397217 
	C190.005859,233.397217 163.632599,233.397217 137.309479,233.397217 
	C137.309479,249.386230 137.309479,264.976044 137.309479,281.000000 
	C157.577057,281.000000 177.538284,281.000000 198.499329,281.000000 
z"/>
<path fill="#B13232" opacity="1.000000" stroke="none" 
	d="
M167.695984,361.487915 
	C172.764267,361.119110 177.979767,361.072235 183.668152,361.095673 
	C181.952713,365.150360 179.764404,369.134766 177.078506,374.025116 
	C173.654510,369.496277 170.748871,365.653076 167.695984,361.487915 
z"/>
<path fill="#B13232" opacity="1.000000" stroke="none" 
	d="
M124.209808,361.514130 
	C127.410271,361.121490 130.693665,361.075378 134.418762,361.098022 
	C132.477386,363.838196 130.094299,366.509644 127.148270,369.812134 
	C126.022308,366.676788 125.157532,364.268738 124.209808,361.514130 
z"/>
<path fill="#B43333" opacity="1.000000" stroke="none" 
	d="
M341.970947,79.993652 
	C341.985107,80.016594 342.218048,79.822281 342.218048,79.822281 
	C342.218048,79.822281 342.087524,80.001579 342.005371,79.965065 
	C341.923248,79.928551 341.956818,79.970703 341.970947,79.993652 
z"/>
<path fill="#010000" opacity="1.000000" stroke="none" 
	d="
M233.482208,312.924255 
	C233.110641,284.089264 233.053787,255.140305 233.000397,226.191330 
	C232.987946,219.437210 230.599762,217.003418 223.939575,217.001450 
	C176.351562,216.987396 128.763565,216.975800 80.731842,216.897644 
	C84.106773,171.636749 116.291122,136.086487 157.588791,125.983871 
	C206.690491,113.972160 257.252319,139.564835 276.238220,186.017548 
	C295.581940,233.345749 277.757721,286.596863 233.482208,312.924255 
z"/>
<path fill="#000000" opacity="1.000000" stroke="none" 
	d="
M114.472725,113.418625 
	C114.445847,113.358109 114.499603,113.479149 114.472725,113.418625 
z"/>
<path fill="#0F334D" opacity="1.000000" stroke="none" 
	d="
M197.999420,281.000000 
	C177.538284,281.000000 157.577057,281.000000 137.309479,281.000000 
	C137.309479,264.976044 137.309479,249.386230 137.309479,233.397217 
	C163.632599,233.397217 190.005859,233.397217 216.690536,233.397217 
	C216.690536,249.023987 216.690536,264.613800 216.690536,281.000000 
	C210.674683,281.000000 204.587006,281.000000 197.999420,281.000000 
z"/>
<path fill="#10334D" opacity="1.000000" stroke="none" 
	d="
M137.167389,316.795288 
	C137.167389,310.478485 137.167389,304.161652 137.167389,297.422180 
	C163.558823,297.422180 189.912659,297.422180 216.956802,297.422180 
	C216.956802,304.891266 216.956802,312.476898 216.534088,320.607758 
	C189.206680,330.389160 162.912140,328.572174 137.167389,316.795288 
z"/>
<path fill="#10334D" opacity="1.000000" stroke="none" 
	d="
M118.657478,344.839355 
	C93.036766,344.839355 67.416046,344.839355 41.397320,344.839355 
	C41.397320,329.050110 41.397320,313.354065 41.397320,297.034760 
	C51.312981,297.034760 61.237873,297.034760 71.532227,297.428223 
	C65.799622,308.256439 59.697559,318.691223 53.202469,329.798065 
	C55.374043,329.798065 56.657505,329.875122 57.929394,329.786316 
	C72.538399,328.766235 87.140839,327.640472 101.758591,326.770508 
	C103.908607,326.642548 106.236282,327.428284 108.297516,328.252136 
	C115.734566,331.224854 116.677116,338.382599 118.657478,344.839355 
z"/>
<path fill="#8D5671" opacity="1.000000" stroke="none" 
	d="
M54.510124,233.172913 
	C62.775028,233.129486 71.039932,233.086044 79.817688,233.493896 
	C81.945496,250.847656 87.542542,266.388702 96.359474,280.828918 
	C85.559380,280.870758 74.759277,280.912598 63.289753,280.635132 
	C55.468998,275.868927 48.317673,271.422089 41.166344,266.975220 
	C41.124870,260.242737 41.083397,253.510239 41.404213,246.169250 
	C44.856594,243.759323 47.865993,241.796127 51.059921,240.202820 
	C54.136360,238.668106 55.487476,236.562683 54.510124,233.172913 
z"/>
<path fill="#8D5671" opacity="1.000000" stroke="none" 
	d="
M119.028122,344.881409 
	C116.677116,338.382599 115.734566,331.224854 108.297516,328.252136 
	C106.236282,327.428284 103.908607,326.642548 101.758591,326.770508 
	C87.140839,327.640472 72.538399,328.766235 57.929394,329.786316 
	C56.657505,329.875122 55.374043,329.798065 53.202469,329.798065 
	C59.697559,318.691223 65.799622,308.256439 72.003525,297.493469 
	C84.485794,297.125092 96.866219,297.084930 109.883682,297.376373 
	C113.961884,300.583618 117.403053,303.459229 120.844223,306.334869 
	C120.895096,318.212616 120.984062,330.090515 120.927040,341.967743 
	C120.922310,342.955414 119.931450,343.938354 119.028122,344.881409 
z"/>
<path fill="#10334D" opacity="1.000000" stroke="none" 
	d="
M96.794319,280.890076 
	C87.542542,266.388702 81.945496,250.847656 80.299507,233.557465 
	C93.660530,233.169754 107.052589,233.169754 120.720650,233.169754 
	C120.720650,249.154678 120.720650,264.812714 120.720650,280.951202 
	C112.730118,280.951202 104.979645,280.951202 96.794319,280.890076 
z"/>
<path fill="#8D5671" opacity="1.000000" stroke="none" 
	d="
M137.105118,317.276672 
	C162.912140,328.572174 189.206680,330.389160 216.472290,321.072266 
	C216.833221,328.765717 216.833221,336.539917 216.833221,344.654663 
	C190.249374,344.654663 163.940216,344.654663 137.042847,344.654663 
	C137.042847,335.592163 137.042847,326.675110 137.105118,317.276672 
z"/>
<path fill="#11344E" opacity="1.000000" stroke="none" 
	d="
M41.100891,267.440002 
	C48.317673,271.422089 55.468998,275.868927 62.826569,280.575256 
	C55.918934,280.834717 48.805050,280.834717 41.035442,280.834717 
	C41.035442,276.405212 41.035442,272.154968 41.100891,267.440002 
z"/>
<path fill="#13344E" opacity="1.000000" stroke="none" 
	d="
M54.091408,233.107941 
	C55.487476,236.562683 54.136360,238.668106 51.059921,240.202820 
	C47.865993,241.796127 44.856594,243.759323 41.466965,245.693451 
	C41.167427,241.740860 41.167427,237.655594 41.167427,233.042969 
	C45.521519,233.042969 49.597107,233.042969 54.091408,233.107941 
z"/>
<path fill="#16354F" opacity="1.000000" stroke="none" 
	d="
M120.907730,305.853546 
	C117.403053,303.459229 113.961884,300.583618 110.361511,297.438263 
	C113.518875,297.168549 116.835449,297.168549 120.971245,297.168549 
	C120.971245,299.903412 120.971245,302.637817 120.907730,305.853546 
z"/>
</svg>