<svg version="1.1" id="Layer_1" xmlns="http://www.w3.org/2000/svg" xmlns:xlink="http://www.w3.org/1999/xlink" x="0px" y="0px"
	 width="456" height="456" viewBox="0 0 456 456">
<path fill="#FFFFFF" opacity="1.000000" stroke="none" 
	d="
M1.000000,97.000000 
	C1.000000,64.666672 1.000000,32.833344 1.000000,1.000013 
	C128.999969,1.000009 256.999939,1.000009 384.999939,1.000004 
	C384.999939,128.999954 384.999939,256.999908 384.999969,384.999878 
	C257.000061,384.999939 129.000153,384.999939 1.000112,384.999969 
	C1.000000,289.166656 1.000000,193.333328 1.000000,97.000000 
M4.304477,27.385324 
	C3.598294,30.611380 2.892111,33.837433 2.088812,37.986340 
	C2.061726,136.678284 2.032623,235.370224 2.014297,334.062164 
	C2.013494,338.384064 2.111315,342.705963 2.038902,347.830505 
	C2.315422,349.564545 2.591943,351.298553 2.996760,353.796112 
	C3.958884,356.210815 4.921007,358.625488 6.000267,361.762085 
	C7.960951,364.520721 9.921637,367.279358 12.142194,370.666168 
	C14.744599,372.812866 17.347004,374.959564 20.256927,377.765594 
	C28.006815,382.120605 36.331364,383.112518 45.153442,383.099152 
	C145.107956,382.947876 245.062775,383.034821 345.017456,382.964081 
	C357.815186,382.955017 367.403503,376.736389 375.094269,366.744873 
	C382.741150,356.810455 382.446930,345.501465 381.992706,333.078583 
	C381.995728,234.594345 382.005219,136.110092 381.953186,37.625881 
	C381.952179,35.751972 381.223999,33.878448 380.986694,31.247677 
	C379.361053,27.815723 377.735443,24.383772 375.852997,20.311314 
	C373.913910,18.165916 371.974792,16.020521 369.807953,13.251225 
	C368.214294,12.132968 366.620636,11.014709 364.781158,9.248856 
	C362.547272,8.145213 360.313385,7.041570 357.726501,5.256084 
	C354.497131,4.562934 351.267761,3.869784 347.109802,3.017694 
	C247.909943,3.019907 148.710098,3.021645 49.510239,3.030088 
	C48.347240,3.030187 47.184250,3.116962 45.106781,3.020562 
	C41.415665,3.068942 37.724552,3.117321 33.297779,3.306000 
	C24.958130,5.432241 17.334600,8.770090 11.363112,16.247675 
	C9.207059,19.808187 7.051006,23.368700 4.304477,27.385324 
z"/>
<path fill="#1B1A1A" opacity="1.000000" stroke="none" 
	d="
M370.035706,13.875126 
	C371.974792,16.020521 373.913910,18.165916 375.624634,20.823139 
	C374.930878,23.513044 374.059662,25.690863 374.058258,27.869244 
	C373.991425,131.403015 374.011078,234.936813 373.978943,338.470612 
	C373.976318,346.902191 372.528625,354.961121 366.907043,361.760132 
	C366.253784,362.550262 366.288879,363.909485 365.884247,365.270782 
	C365.177032,366.025909 364.590454,366.515137 363.632568,367.006775 
	C359.840820,369.006134 356.420410,371.003082 352.667450,373.000610 
	C351.891571,373.003021 351.448212,373.004852 350.650940,373.009460 
	C349.528870,373.671814 348.760773,374.331360 347.660797,374.992554 
	C346.886353,374.993652 346.443787,374.993164 345.720673,374.703766 
	C342.293427,374.610504 339.146698,374.806152 335.531342,375.001434 
	C283.041656,375.001404 231.020660,375.001770 178.889954,374.737732 
	C178.513260,373.968170 178.246277,373.462982 178.066803,372.621277 
	C180.142792,368.578339 182.131287,364.871918 184.576508,361.098145 
	C198.283524,361.020355 211.535217,361.102234 224.782700,360.903809 
	C226.860123,360.872742 228.918472,359.569031 231.294098,359.010681 
	C236.225464,362.275299 240.848389,365.382935 246.029007,368.865479 
	C250.221634,355.715302 254.129211,343.399445 258.078064,331.096893 
	C260.296692,324.184814 263.695190,322.315765 270.887604,323.362793 
	C278.052979,324.405914 285.270325,325.092102 293.042175,326.002411 
	C291.384155,318.355927 289.704285,311.446594 288.468658,304.458710 
	C288.032684,301.992859 287.756348,298.683167 289.016968,296.891479 
	C292.317291,292.200836 295.992523,287.495514 300.431610,283.934570 
	C316.527740,271.022583 333.023132,258.609161 349.285187,245.901825 
	C350.694397,244.800644 352.685699,242.621140 352.389648,241.454208 
	C350.329407,233.333054 347.736206,225.347137 344.943329,216.089737 
	C337.988983,230.325912 331.665375,243.270844 325.034393,256.845001 
	C321.016174,253.389801 317.628174,250.280441 314.025452,247.443848 
	C311.392212,245.370605 310.774139,242.980896 310.851868,239.667709 
	C311.116333,228.394180 311.153809,217.103897 310.827911,205.833038 
	C310.677002,200.614014 309.077271,195.655457 310.721863,190.174591 
	C319.605927,160.567291 328.139618,130.854202 336.670654,101.142136 
	C338.677307,94.153381 340.207336,87.027779 342.098816,79.952217 
	C342.168091,79.971565 342.095154,80.003822 341.669861,80.057495 
	C319.171326,92.994331 297.003479,105.872719 274.889893,118.843658 
	C266.240204,123.917221 266.394165,123.868164 258.029297,118.137245 
	C254.827576,115.943687 253.853455,113.637672 254.365021,109.795792 
	C254.933502,105.526451 254.495163,101.123039 254.495163,96.288383 
	C249.625702,99.183411 245.243362,101.872650 240.767090,104.395210 
	C239.542328,105.085411 237.796814,105.965553 236.696747,105.584648 
	C228.757294,102.835518 220.922333,99.784676 212.249741,96.527283 
	C242.421936,71.806854 272.203033,47.406857 301.984131,23.006861 
	C301.733002,22.597191 301.481903,22.187519 301.230774,21.777849 
	C239.411942,51.985497 177.593109,82.193146 114.744240,112.904129 
	C119.468025,96.866913 125.990517,83.114784 135.349121,70.084351 
	C124.753181,71.946396 119.771950,65.715889 116.067383,56.883358 
	C110.767258,65.293060 106.023628,72.336845 101.825523,79.692001 
	C99.833916,83.181343 97.183205,84.522217 93.506470,85.002739 
	C89.660721,85.505348 85.856667,86.327019 81.454041,87.112793 
	C82.703156,89.128555 83.406677,90.422173 84.257050,91.610725 
	C90.263954,100.006599 96.333397,108.358032 102.289253,116.789780 
	C103.072342,117.898407 104.034462,120.305161 103.713211,120.552681 
	C99.752884,123.604103 95.842033,128.194687 91.391907,128.858521 
	C78.119987,130.838333 64.610115,131.201920 51.201096,132.293945 
	C45.855854,132.729248 40.531334,133.418976 34.470470,134.071106 
	C44.190720,145.980392 53.259518,157.091522 62.783138,168.759903 
	C53.825325,172.006409 45.961571,174.856415 37.169521,178.042862 
	C43.579002,181.982132 49.005424,185.475494 54.596252,188.682236 
	C57.144482,190.143845 57.805065,191.584930 57.221737,194.642624 
	C55.823593,201.971466 55.099327,209.428848 53.629974,216.904343 
	C46.665104,216.983032 40.173336,216.987259 33.681591,217.001755 
	C27.627939,217.015274 25.004370,219.601913 25.003548,225.605804 
	C24.997782,267.719482 24.999166,309.833130 25.001850,351.946808 
	C25.002275,358.620209 27.430416,360.988251 34.232937,361.000427 
	C64.191742,361.054016 94.150543,361.110535 124.163132,361.519531 
	C125.074883,364.267029 125.932854,366.661011 127.056267,369.795654 
	C130.068451,366.475098 132.475708,363.821381 135.354218,361.096710 
	C146.443848,361.071167 157.062225,361.116547 167.801971,361.491089 
	C170.600906,365.582581 173.278473,369.344940 175.854568,373.352936 
	C175.502213,374.066467 175.251328,374.534363 174.531769,375.001648 
	C131.375320,375.001526 88.687561,375.001984 45.710640,374.706696 
	C33.084137,374.887207 22.533052,370.421295 12.857739,363.081146 
	C11.054555,361.713165 8.234101,361.686096 5.883127,361.040192 
	C4.921007,358.625488 3.958884,356.210815 3.334566,353.402618 
	C4.656384,353.125977 5.690958,353.086548 6.615972,353.385803 
	C11.601563,354.998596 12.237103,354.585114 11.940850,349.270477 
	C11.793946,346.635010 11.046409,344.017548 11.045119,341.391693 
	C10.997309,244.061890 10.960720,146.731979 11.121783,49.402416 
	C11.130916,43.883801 11.925628,38.011673 13.941585,32.934113 
	C16.987461,25.262510 22.461767,19.181274 30.373423,15.736642 
	C31.450850,15.267544 32.188961,14.019094 33.402145,13.095812 
	C34.146889,13.042542 34.573669,13.024952 35.163803,13.231441 
	C35.921246,13.032001 36.515324,12.608481 37.544899,12.148005 
	C40.320362,12.075896 42.660332,12.040745 45.296581,12.298874 
	C47.071121,12.721656 48.549362,12.964233 50.027653,12.964510 
	C145.620132,12.982431 241.212631,12.985821 336.805084,12.940323 
	C338.536865,12.939499 340.268372,12.333735 342.432678,12.009068 
	C344.880219,12.054720 346.895050,12.101542 349.004028,12.484694 
	C352.472015,14.415131 355.909698,15.888248 359.206940,17.627653 
	C366.908051,21.690273 366.880707,21.742077 370.035706,13.875126 
z"/>
<path fill="#4E4E4E" opacity="1.000000" stroke="none" 
	d="
M2.163196,347.027863 
	C2.111315,342.705963 2.013494,338.384064 2.014297,334.062164 
	C2.032623,235.370224 2.061726,136.678284 2.511783,37.516613 
	C4.570899,36.137516 6.735007,35.619270 7.749731,34.249538 
	C11.670148,28.957535 15.223799,23.393827 19.135376,17.824360 
	C19.629057,17.520626 19.833138,17.268566 20.304012,16.988222 
	C21.086767,17.002403 21.534401,16.989548 22.028027,17.028379 
	C22.074020,17.080067 22.164753,17.184538 22.083620,17.514408 
	C21.650644,18.402027 21.404785,19.078999 20.931295,19.499903 
	C11.620878,27.776270 8.946868,38.508167 8.954912,50.470619 
	C9.018963,145.726044 8.989653,240.981537 8.987976,336.237000 
	C8.987949,337.735718 9.083572,339.244293 8.947794,340.731232 
	C8.574533,344.818878 7.165212,347.884918 2.163196,347.027863 
z"/>
<path fill="#090909" opacity="1.000000" stroke="none" 
	d="
M364.003845,367.004333 
	C364.590454,366.515137 365.177032,366.025909 366.239044,365.234894 
	C371.224670,362.678009 373.724976,359.081787 374.357208,353.949158 
	C376.472137,348.749817 378.215851,343.599182 380.012543,338.467102 
	C380.542725,336.952637 381.222900,335.490662 381.834351,334.004639 
	C382.446930,345.501465 382.741150,356.810455 375.094269,366.744873 
	C367.403503,376.736389 357.815186,382.955017 345.017456,382.964081 
	C245.062775,383.034821 145.107956,382.947876 45.153442,383.099152 
	C36.331364,383.112518 28.006815,382.120605 20.368305,377.130157 
	C22.594418,376.474457 24.727915,376.266235 26.819786,376.475006 
	C30.594076,376.851746 34.343098,377.930603 38.103325,377.933746 
	C138.009262,378.016876 237.915283,378.004974 337.821259,377.958221 
	C339.547363,377.957428 341.273224,377.330872 343.373657,376.996887 
	C344.497162,376.996643 345.246124,376.995880 346.334167,376.995209 
	C347.448792,376.662323 348.224396,376.329346 349.332306,375.996216 
	C350.107697,375.995361 350.550812,375.994629 351.314850,375.955322 
	C352.090759,375.281494 352.545715,374.646240 353.381531,374.002991 
	C357.734558,372.482788 362.507812,372.144135 364.003845,367.004333 
z"/>
<path fill="#0E0E0E" opacity="1.000000" stroke="none" 
	d="
M381.913513,333.541626 
	C381.222900,335.490662 380.542725,336.952637 380.012543,338.467102 
	C378.215851,343.599182 376.472137,348.749817 374.398315,353.564880 
	C375.058990,347.391785 376.864746,341.548706 376.875427,335.702332 
	C377.050842,239.643173 376.999969,143.583633 377.000183,47.524174 
	C377.000183,46.025848 376.588409,44.370335 377.084808,43.059265 
	C378.465210,39.413376 376.120728,34.485325 380.835114,32.004745 
	C381.223999,33.878448 381.952179,35.751972 381.953186,37.625881 
	C382.005219,136.110092 381.995728,234.594345 381.913513,333.541626 
z"/>
<path fill="#949494" opacity="1.000000" stroke="none" 
	d="
M46.021255,3.163277 
	C47.184250,3.116962 48.347240,3.030187 49.510239,3.030088 
	C148.710098,3.021645 247.909943,3.019907 347.502625,3.465736 
	C343.586334,4.939826 339.278809,6.853756 334.967834,6.861464 
	C238.836075,7.033349 142.703918,6.994395 46.571835,7.000012 
	C43.371948,7.000199 40.172066,7.048515 37.212608,6.779283 
	C40.309109,5.377204 43.165184,4.270241 46.021255,3.163277 
z"/>
<path fill="#131313" opacity="1.000000" stroke="none" 
	d="
M380.910889,31.626211 
	C376.120728,34.485325 378.465210,39.413376 377.084808,43.059265 
	C376.588409,44.370335 377.000183,46.025848 377.000183,47.524174 
	C376.999969,143.583633 377.050842,239.643173 376.875427,335.702332 
	C376.864746,341.548706 375.058990,347.391785 374.047363,353.620667 
	C373.724976,359.081787 371.224670,362.678009 366.359680,364.968994 
	C366.288879,363.909485 366.253784,362.550262 366.907043,361.760132 
	C372.528625,354.961121 373.976318,346.902191 373.978943,338.470612 
	C374.011078,234.936813 373.991425,131.403015 374.058258,27.869244 
	C374.059662,25.690863 374.930878,23.513044 375.753052,21.143391 
	C377.735443,24.383772 379.361053,27.815723 380.910889,31.626211 
z"/>
<path fill="#0D0D0D" opacity="1.000000" stroke="none" 
	d="
M342.999176,376.996338 
	C341.273224,377.330872 339.547363,377.957428 337.821259,377.958221 
	C237.915283,378.004974 138.009262,378.016876 38.103325,377.933746 
	C34.343098,377.930603 30.594076,376.851746 26.819786,376.475006 
	C24.727915,376.266235 22.594418,376.474457 20.214546,376.800476 
	C17.347004,374.959564 14.744599,372.812866 12.444668,370.341370 
	C15.914596,370.714386 19.182701,371.119568 22.229780,372.167450 
	C29.977781,374.831940 37.638245,377.690704 45.999798,375.002411 
	C88.687561,375.001984 131.375320,375.001526 174.741638,375.263000 
	C176.613358,375.350677 177.806503,375.176422 178.999649,375.002197 
	C231.020660,375.001770 283.041656,375.001404 335.788116,375.281525 
	C338.675415,376.040131 340.837311,376.518219 342.999176,376.996338 
z"/>
<path fill="#323232" opacity="1.000000" stroke="none" 
	d="
M2.101049,347.429199 
	C7.165212,347.884918 8.574533,344.818878 8.947794,340.731232 
	C9.083572,339.244293 8.987949,337.735718 8.987976,336.237000 
	C8.989653,240.981537 9.018963,145.726044 8.954912,50.470619 
	C8.946868,38.508167 11.620878,27.776270 20.931295,19.499903 
	C21.404785,19.078999 21.650644,18.402027 22.441666,17.456570 
	C26.281954,15.756405 29.683067,14.443949 33.084179,13.131493 
	C32.188961,14.019094 31.450850,15.267544 30.373423,15.736642 
	C22.461767,19.181274 16.987461,25.262510 13.941585,32.934113 
	C11.925628,38.011673 11.130916,43.883801 11.121783,49.402416 
	C10.960720,146.731979 10.997309,244.061890 11.045119,341.391693 
	C11.046409,344.017548 11.793946,346.635010 11.940850,349.270477 
	C12.237103,354.585114 11.601563,354.998596 6.615972,353.385803 
	C5.690958,353.086548 4.656384,353.125977 3.270417,353.020874 
	C2.591943,351.298553 2.315422,349.564545 2.101049,347.429199 
z"/>
<path fill="#4E4E4E" opacity="1.000000" stroke="none" 
	d="
M33.402145,13.095813 
	C29.683067,14.443949 26.281954,15.756405 22.522797,17.126699 
	C22.164753,17.184538 22.074020,17.080067 22.142498,16.770142 
	C22.457952,15.957008 22.704927,15.453800 23.027527,14.656474 
	C23.182056,13.966205 23.260958,13.570052 23.685749,13.169830 
	C25.338081,12.761459 26.644524,12.357159 28.366468,12.000229 
	C42.948185,8.283059 57.431980,9.061021 71.857384,9.058970 
	C164.101440,9.045856 256.345551,9.027375 348.589508,9.110271 
	C352.268219,9.113576 355.465485,8.652026 358.079468,5.937932 
	C360.313385,7.041570 362.547272,8.145213 364.893250,9.958017 
	C364.478882,14.035690 362.971222,15.466350 359.295898,14.318606 
	C355.935699,13.269271 352.379639,12.846982 348.909912,12.148365 
	C346.895050,12.101542 344.880219,12.054720 342.136536,11.715483 
	C339.929108,11.294038 338.450562,11.052345 336.971924,11.052070 
	C241.380325,11.034241 145.788727,11.030877 50.197136,11.076366 
	C48.464714,11.077190 46.732574,11.682392 45.000305,12.005594 
	C42.660332,12.040745 40.320362,12.075896 37.235649,12.107393 
	C35.994087,12.404946 35.497265,12.706153 35.000446,13.007361 
	C34.573669,13.024952 34.146889,13.042542 33.402145,13.095813 
z"/>
<path fill="#7B7B7B" opacity="1.000000" stroke="none" 
	d="
M357.902985,5.597011 
	C355.465485,8.652026 352.268219,9.113576 348.589508,9.110271 
	C256.345551,9.027375 164.101440,9.045856 71.857384,9.058970 
	C57.431980,9.061021 42.948185,8.283059 28.386730,11.666130 
	C29.335138,10.205093 30.678783,9.125526 32.388794,8.047367 
	C34.160835,7.723982 35.566505,7.399189 36.972179,7.074396 
	C40.172066,7.048515 43.371948,7.000199 46.571835,7.000012 
	C142.703918,6.994395 238.836075,7.033349 334.967834,6.861464 
	C339.278809,6.853756 343.586334,4.939826 347.966919,3.545207 
	C351.267761,3.869784 354.497131,4.562934 357.902985,5.597011 
z"/>
<path fill="#131313" opacity="1.000000" stroke="none" 
	d="
M45.710640,374.706696 
	C37.638245,377.690704 29.977781,374.831940 22.229780,372.167450 
	C19.182701,371.119568 15.914596,370.714386 12.314732,370.027283 
	C9.921637,367.279358 7.960951,364.520721 5.941695,361.401123 
	C8.234101,361.686096 11.054555,361.713165 12.857739,363.081146 
	C22.533052,370.421295 33.084137,374.887207 45.710640,374.706696 
z"/>
<path fill="#B1B1B1" opacity="1.000000" stroke="none" 
	d="
M32.022430,8.045959 
	C30.678783,9.125526 29.335138,10.205093 27.971230,11.618759 
	C26.644524,12.357159 25.338081,12.761459 23.279497,13.108416 
	C20.668758,13.881378 18.870207,14.921432 16.932697,15.476101 
	C15.362492,15.925618 13.625238,15.791621 11.962077,15.916435 
	C17.334600,8.770090 24.958130,5.432241 33.647678,3.580625 
	C33.339195,5.252153 32.680813,6.649057 32.022430,8.045959 
z"/>
<path fill="#323232" opacity="1.000000" stroke="none" 
	d="
M349.004028,12.484695 
	C352.379639,12.846982 355.935699,13.269271 359.295898,14.318606 
	C362.971222,15.466350 364.478882,14.035690 365.016144,10.281816 
	C366.620636,11.014709 368.214294,12.132968 369.921814,13.563177 
	C366.880707,21.742077 366.908051,21.690273 359.206940,17.627653 
	C355.909698,15.888248 352.472015,14.415131 349.004028,12.484695 
z"/>
<path fill="#7B7B7B" opacity="1.000000" stroke="none" 
	d="
M18.914103,17.931353 
	C15.223799,23.393827 11.670148,28.957535 7.749731,34.249538 
	C6.735007,35.619270 4.570899,36.137516 2.560341,37.055187 
	C2.892111,33.837433 3.598294,30.611380 4.972022,27.173176 
	C8.178530,25.067200 10.668793,23.102871 13.273219,21.303812 
	C15.071819,20.061394 17.028221,19.047417 18.914103,17.931353 
z"/>
<path fill="#A2A2A2" opacity="1.000000" stroke="none" 
	d="
M19.135376,17.824360 
	C17.028221,19.047417 15.071819,20.061394 13.273219,21.303812 
	C10.668793,23.102871 8.178530,25.067200 5.267261,26.945122 
	C7.051006,23.368700 9.207059,19.808187 11.662595,16.082054 
	C13.625238,15.791621 15.362492,15.925618 16.932697,15.476101 
	C18.870207,14.921432 20.668758,13.881378 22.933609,13.112486 
	C23.260958,13.570052 23.182056,13.966205 22.677711,14.652735 
	C21.491144,15.615805 20.730019,16.288494 19.968893,16.961185 
	C19.833138,17.268566 19.629057,17.520626 19.135376,17.824360 
z"/>
<path fill="#A2A2A2" opacity="1.000000" stroke="none" 
	d="
M32.388794,8.047368 
	C32.680813,6.649057 33.339195,5.252153 34.015507,3.510475 
	C37.724552,3.117321 41.415665,3.068942 45.564018,3.091920 
	C43.165184,4.270241 40.309109,5.377204 37.212608,6.779282 
	C35.566505,7.399189 34.160835,7.723982 32.388794,8.047368 
z"/>
<path fill="#B53333" opacity="1.000000" stroke="none" 
	d="
M341.956604,79.965126 
	C340.207336,87.027779 338.677307,94.153381 336.670654,101.142136 
	C328.139618,130.854202 319.605927,160.567291 310.721863,190.174591 
	C309.077271,195.655457 310.677002,200.614014 310.827911,205.833038 
	C311.153809,217.103897 311.116333,228.394180 310.851868,239.667709 
	C310.774139,242.980896 311.392212,245.370605 314.025452,247.443848 
	C317.628174,250.280441 321.016174,253.389801 325.034393,256.845001 
	C331.665375,243.270844 337.988983,230.325912 344.943329,216.089737 
	C347.736206,225.347137 350.329407,233.333054 352.389648,241.454208 
	C352.685699,242.621140 350.694397,244.800644 349.285187,245.901825 
	C333.023132,258.609161 316.527740,271.022583 300.431610,283.934570 
	C295.992523,287.495514 292.317291,292.200836 289.016968,296.891479 
	C287.756348,298.683167 288.032684,301.992859 288.468658,304.458710 
	C289.704285,311.446594 291.384155,318.355927 293.042175,326.002411 
	C285.270325,325.092102 278.052979,324.405914 270.887604,323.362793 
	C263.695190,322.315765 260.296692,324.184814 258.078064,331.096893 
	C254.129211,343.399445 250.221634,355.715302 246.029007,368.865479 
	C240.848389,365.382935 236.225464,362.275299 231.466675,358.667847 
	C231.886948,356.383453 232.900452,354.605438 232.926224,352.813202 
	C233.116959,339.551849 233.111084,326.287659 233.477814,312.895020 
	C242.402557,305.527618 252.092850,299.237732 259.446777,290.889648 
	C293.913147,251.763885 291.877380,190.801270 255.040482,153.853577 
	C231.564331,130.306824 202.951950,119.928162 169.709717,123.928757 
	C140.235641,127.475868 116.763245,141.604630 99.207855,165.524155 
	C87.992393,180.805389 82.170280,198.107071 79.755478,216.903839 
	C70.885536,216.927979 62.494312,216.881165 54.103088,216.834351 
	C55.099327,209.428848 55.823593,201.971466 57.221737,194.642624 
	C57.805065,191.584930 57.144482,190.143845 54.596252,188.682236 
	C49.005424,185.475494 43.579002,181.982132 37.169521,178.042862 
	C45.961571,174.856415 53.825325,172.006409 62.783138,168.759903 
	C53.259518,157.091522 44.190720,145.980392 34.470470,134.071106 
	C40.531334,133.418976 45.855854,132.729248 51.201096,132.293945 
	C64.610115,131.201920 78.119987,130.838333 91.391907,128.858521 
	C95.842033,128.194687 99.752884,123.604103 103.713211,120.552681 
	C104.034462,120.305161 103.072342,117.898407 102.289253,116.789780 
	C96.333397,108.358032 90.263954,100.006599 84.257050,91.610725 
	C83.406677,90.422173 82.703156,89.128555 81.454041,87.112793 
	C85.856667,86.327019 89.660721,85.505348 93.506470,85.002739 
	C97.183205,84.522217 99.833916,83.181343 101.825523,79.692001 
	C106.023628,72.336845 110.767258,65.293060 116.067383,56.883358 
	C119.771950,65.715889 124.753181,71.946396 135.349121,70.084351 
	C125.990517,83.114784 119.468025,96.866913 114.744240,112.904129 
	C177.593109,82.193146 239.411942,51.985497 301.230774,21.777849 
	C301.481903,22.187519 301.733002,22.597191 301.984131,23.006861 
	C272.203033,47.406857 242.421936,71.806854 212.249741,96.527283 
	C220.922333,99.784676 228.757294,102.835518 236.696747,105.584648 
	C237.796814,105.965553 239.542328,105.085411 240.767090,104.395210 
	C245.243362,101.872650 249.625702,99.183411 254.495163,96.288383 
	C254.495163,101.123039 254.933502,105.526451 254.365021,109.795792 
	C253.853455,113.637672 254.827576,115.943687 258.029297,118.137245 
	C266.394165,123.868164 266.240204,123.917221 274.889893,118.843658 
	C297.003479,105.872719 319.171326,92.994331 341.655151,80.038223 
	C341.992798,79.997536 341.956604,79.965126 341.956604,79.965126 
M114.539009,113.285118 
	C114.539009,113.285118 114.457283,113.472885 114.457283,113.472885 
	C114.457283,113.472885 114.626068,113.431396 114.539009,113.285118 
z"/>
<path fill="#31A8FF" opacity="1.000000" stroke="none" 
	d="
M53.629974,216.904343 
	C62.494312,216.881165 70.885536,216.927979 80.197617,216.971069 
	C128.709503,216.978333 176.300537,216.988449 223.891571,217.001236 
	C230.580368,217.003036 232.987930,219.437775 233.000504,226.172272 
	C233.054565,255.122971 233.111267,284.073669 233.167023,313.024384 
	C233.111084,326.287659 233.116959,339.551849 232.926224,352.813202 
	C232.900452,354.605438 231.886948,356.383453 231.158218,358.510895 
	C228.918472,359.569031 226.860123,360.872742 224.782700,360.903809 
	C211.535217,361.102234 198.283524,361.020355 184.102875,361.027802 
	C178.008560,361.070587 172.844574,361.116272 167.680588,361.161957 
	C157.062225,361.116547 146.443848,361.071167 134.911682,361.028320 
	C130.701706,361.075897 127.405525,361.120941 124.109344,361.165955 
	C94.150543,361.110535 64.191742,361.054016 34.232937,361.000427 
	C27.430416,360.988251 25.002275,358.620209 25.001850,351.946808 
	C24.999166,309.833130 24.997782,267.719482 25.003548,225.605804 
	C25.004370,219.601913 27.627939,217.015274 33.681591,217.001755 
	C40.173336,216.987259 46.665104,216.983032 53.629974,216.904343 
M109.179504,297.040924 
	C96.807594,297.081970 84.435677,297.122986 71.126198,297.037048 
	C61.198544,297.037048 51.270893,297.037048 41.256809,297.037048 
	C41.256809,313.286011 41.256809,328.872314 41.256809,344.829865 
	C67.114342,344.829865 92.717247,344.829865 119.112541,344.934937 
	C119.741539,343.884796 120.910065,342.838196 120.916931,341.783997 
	C120.994202,329.919067 120.892998,318.052979 120.963684,305.243896 
	C120.963684,302.647186 120.963684,300.050446 120.963684,297.163879 
	C117.001068,297.163879 113.563232,297.163879 109.179504,297.040924 
M63.927223,280.958344 
	C74.681793,280.916229 85.436371,280.874146 97.083160,280.956604 
	C104.983978,280.956604 112.884796,280.956604 120.714828,280.956604 
	C120.714828,264.615417 120.714828,249.049088 120.714828,233.165680 
	C107.009346,233.165680 93.585480,233.165680 79.211708,233.037964 
	C71.062263,233.081421 62.912815,233.124863 53.886040,233.042419 
	C49.702465,233.042419 45.518887,233.042419 41.164574,233.042419 
	C41.164574,237.755890 41.164574,241.816803 41.037498,246.822464 
	C41.079384,253.550171 41.121269,260.277893 41.035576,267.930847 
	C41.035576,272.172577 41.035576,276.414307 41.035576,280.839844 
	C48.795204,280.839844 55.895729,280.839844 63.927223,280.958344 
M216.960068,320.068451 
	C216.960068,312.477966 216.960068,304.887451 216.960068,297.272034 
	C190.009613,297.272034 163.760498,297.272034 137.162842,297.272034 
	C137.162842,303.984436 137.162842,310.433960 137.037399,317.836304 
	C137.037399,326.752838 137.037399,335.669403 137.037399,344.667206 
	C163.957962,344.667206 190.283966,344.667206 216.836349,344.667206 
	C216.836349,336.557983 216.836349,328.778015 216.960068,320.068451 
M199.498688,281.000000 
	C205.253677,281.000000 211.008652,281.000000 216.690552,281.000000 
	C216.690552,264.614075 216.690552,249.024353 216.690552,233.397247 
	C190.005997,233.397247 163.632889,233.397247 137.309540,233.397247 
	C137.309540,249.386108 137.309540,264.975830 137.309540,281.000000 
	C157.910507,281.000000 178.204926,281.000000 199.498688,281.000000 
z"/>
<path fill="#323232" opacity="1.000000" stroke="none" 
	d="
M45.296581,12.298874 
	C46.732574,11.682392 48.464714,11.077190 50.197136,11.076366 
	C145.788727,11.030877 241.380325,11.034241 336.971924,11.052070 
	C338.450562,11.052345 339.929108,11.294038 341.703857,11.716652 
	C340.268372,12.333735 338.536865,12.939499 336.805084,12.940323 
	C241.212631,12.985821 145.620132,12.982431 50.027653,12.964510 
	C48.549362,12.964233 47.071121,12.721656 45.296581,12.298874 
z"/>
<path fill="#B23232" opacity="1.000000" stroke="none" 
	d="
M167.801971,361.491089 
	C172.844574,361.116272 178.008560,361.070587 183.646164,361.095215 
	C182.131287,364.871918 180.142792,368.578339 177.733704,372.689941 
	C176.860748,373.099182 176.408401,373.103241 175.956039,373.107300 
	C173.278473,369.344940 170.600906,365.582581 167.801971,361.491089 
z"/>
<path fill="#B13232" opacity="1.000000" stroke="none" 
	d="
M124.163132,361.519501 
	C127.405525,361.120941 130.701706,361.075897 134.440414,361.099243 
	C132.475708,363.821381 130.068451,366.475098 127.056267,369.795654 
	C125.932854,366.661011 125.074883,364.267029 124.163132,361.519501 
z"/>
<path fill="#131313" opacity="1.000000" stroke="none" 
	d="
M363.632538,367.006775 
	C362.507812,372.144135 357.734558,372.482788 353.381165,373.750183 
	C352.999969,373.336914 353.000000,373.168457 353.000000,373.000000 
	C356.420410,371.003082 359.840820,369.006134 363.632538,367.006775 
z"/>
<path fill="#131313" opacity="1.000000" stroke="none" 
	d="
M343.373657,376.996887 
	C340.837311,376.518219 338.675415,376.040131 336.256775,375.281921 
	C339.146698,374.806152 342.293427,374.610504 345.719910,375.037659 
	C345.998169,376.105316 345.996643,376.550232 345.995117,376.995117 
	C345.246124,376.995880 344.497162,376.996643 343.373657,376.996887 
z"/>
<path fill="#131313" opacity="1.000000" stroke="none" 
	d="
M175.854568,373.352936 
	C176.408401,373.103241 176.860748,373.099182 177.646210,373.026489 
	C178.246277,373.462982 178.513260,373.968170 178.889954,374.737762 
	C177.806503,375.176422 176.613358,375.350677 175.210327,375.263580 
	C175.251328,374.534363 175.502213,374.066467 175.854568,373.352936 
z"/>
<path fill="#131313" opacity="1.000000" stroke="none" 
	d="
M350.993896,375.993896 
	C350.550812,375.994629 350.107697,375.995361 349.223175,375.776123 
	C348.579346,375.283112 348.316315,375.094696 347.992676,374.990906 
	C348.760773,374.331360 349.528870,373.671814 350.649719,373.382812 
	C350.999603,374.500214 350.996765,375.247040 350.993896,375.993896 
z"/>
<path fill="#0D0D0D" opacity="1.000000" stroke="none" 
	d="
M347.660797,374.992554 
	C348.316315,375.094696 348.579346,375.283112 348.890869,375.776245 
	C348.224396,376.329346 347.448792,376.662323 346.334167,376.995209 
	C345.996643,376.550232 345.998169,376.105316 346.000458,375.326538 
	C346.443787,374.993164 346.886353,374.993652 347.660797,374.992554 
z"/>
<path fill="#0D0D0D" opacity="1.000000" stroke="none" 
	d="
M351.314850,375.955322 
	C350.996765,375.247040 350.999603,374.500214 351.003662,373.380005 
	C351.448212,373.004852 351.891571,373.003021 352.667450,373.000610 
	C353.000000,373.168457 352.999969,373.336914 353.000275,373.758179 
	C352.545715,374.646240 352.090759,375.281494 351.314850,375.955322 
z"/>
<path fill="#323232" opacity="1.000000" stroke="none" 
	d="
M35.163803,13.231440 
	C35.497265,12.706153 35.994087,12.404946 36.800156,12.144351 
	C36.515324,12.608481 35.921246,13.032001 35.163803,13.231440 
z"/>
<path fill="#B53333" opacity="1.000000" stroke="none" 
	d="
M342.007507,80.016808 
	C342.095154,80.003822 342.168091,79.971565 342.098816,79.952217 
	C341.956604,79.965126 341.992798,79.997536 342.007507,80.016808 
z"/>
<path fill="#7B7B7B" opacity="1.000000" stroke="none" 
	d="
M20.304012,16.988222 
	C20.730019,16.288494 21.491144,15.615805 22.602085,14.946854 
	C22.704927,15.453800 22.457952,15.957008 22.096506,16.718454 
	C21.534401,16.989548 21.086767,17.002403 20.304012,16.988222 
z"/>
<path fill="#1B1A1A" opacity="1.000000" stroke="none" 
	d="
M233.477814,312.895020 
	C233.111267,284.073669 233.054565,255.122971 233.000504,226.172272 
	C232.987930,219.437775 230.580368,217.003036 223.891571,217.001236 
	C176.300537,216.988449 128.709503,216.978333 80.676323,216.900131 
	C82.170280,198.107071 87.992393,180.805389 99.207855,165.524155 
	C116.763245,141.604630 140.235641,127.475868 169.709717,123.928757 
	C202.951950,119.928162 231.564331,130.306824 255.040482,153.853577 
	C291.877380,190.801270 293.913147,251.763885 259.446777,290.889648 
	C252.092850,299.237732 242.402557,305.527618 233.477814,312.895020 
z"/>
<path fill="#1B1A1A" opacity="1.000000" stroke="none" 
	d="
M114.582535,113.358261 
	C114.626068,113.431396 114.457283,113.472885 114.457283,113.472885 
	C114.457283,113.472885 114.539009,113.285118 114.582535,113.358261 
z"/>
<path fill="#21455F" opacity="1.000000" stroke="none" 
	d="
M198.999008,281.000000 
	C178.204926,281.000000 157.910507,281.000000 137.309540,281.000000 
	C137.309540,264.975830 137.309540,249.386108 137.309540,233.397247 
	C163.632889,233.397247 190.005997,233.397247 216.690552,233.397247 
	C216.690552,249.024353 216.690552,264.614075 216.690552,281.000000 
	C211.008652,281.000000 205.253677,281.000000 198.999008,281.000000 
z"/>
<path fill="#22455F" opacity="1.000000" stroke="none" 
	d="
M137.162842,316.883484 
	C137.162842,310.433960 137.162842,303.984436 137.162842,297.272034 
	C163.760498,297.272034 190.009613,297.272034 216.960068,297.272034 
	C216.960068,304.887451 216.960068,312.477966 216.533020,320.592072 
	C205.387772,323.076141 194.739883,325.955536 183.934906,326.782379 
	C167.580032,328.033905 152.081833,323.387482 137.162842,316.883484 
z"/>
<path fill="#22455F" opacity="1.000000" stroke="none" 
	d="
M118.320145,344.829865 
	C92.717247,344.829865 67.114342,344.829865 41.256809,344.829865 
	C41.256809,328.872314 41.256809,313.286011 41.256809,297.037048 
	C51.270893,297.037048 61.198544,297.037048 71.525131,297.436218 
	C65.759499,308.352295 59.594944,318.869171 53.044144,330.045013 
	C65.771942,329.123383 77.501068,328.141602 89.248215,327.479370 
	C95.126839,327.147949 101.356705,326.204651 106.859520,327.670746 
	C114.889496,329.810181 117.154839,337.299225 118.320145,344.829865 
z"/>
<path fill="#8D5671" opacity="1.000000" stroke="none" 
	d="
M96.190941,280.832062 
	C85.436371,280.874146 74.681793,280.916229 63.256344,280.643585 
	C55.444695,275.887756 48.303925,271.446655 41.163155,267.005585 
	C41.121269,260.277893 41.079384,253.550171 41.402435,246.222626 
	C44.850540,243.763687 47.799377,241.609253 51.054638,240.128448 
	C54.312759,238.646332 55.491051,236.537445 54.763371,233.168320 
	C62.912815,233.124863 71.062263,233.081421 79.711357,233.490723 
	C80.969864,238.316864 81.661362,242.703217 82.500450,247.061142 
	C84.840302,259.213470 90.257195,270.130219 96.190941,280.832062 
z"/>
<path fill="#8D5671" opacity="1.000000" stroke="none" 
	d="
M118.716339,344.882385 
	C117.154839,337.299225 114.889496,329.810181 106.859520,327.670746 
	C101.356705,326.204651 95.126839,327.147949 89.248215,327.479370 
	C77.501068,328.141602 65.771942,329.123383 53.044144,330.045013 
	C59.594944,318.869171 65.759499,308.352295 71.993912,297.499695 
	C84.435677,297.122986 96.807594,297.081970 109.796333,297.383820 
	C113.888680,300.546875 117.364204,303.367035 120.839729,306.187195 
	C120.892998,318.052979 120.994202,329.919067 120.916931,341.783997 
	C120.910065,342.838196 119.741539,343.884796 118.716339,344.882385 
z"/>
<path fill="#22455F" opacity="1.000000" stroke="none" 
	d="
M96.637054,280.894348 
	C90.257195,270.130219 84.840302,259.213470 82.500450,247.061142 
	C81.661362,242.703217 80.969864,238.316864 80.186310,233.554596 
	C93.585480,233.165680 107.009346,233.165680 120.714828,233.165680 
	C120.714828,249.049088 120.714828,264.615417 120.714828,280.956604 
	C112.884796,280.956604 104.983978,280.956604 96.637054,280.894348 
z"/>
<path fill="#8D5671" opacity="1.000000" stroke="none" 
	d="
M137.100128,317.359894 
	C152.081833,323.387482 167.580032,328.033905 183.934906,326.782379 
	C194.739883,325.955536 205.387772,323.076141 216.471161,321.056885 
	C216.836349,328.778015 216.836349,336.557983 216.836349,344.667206 
	C190.283966,344.667206 163.957962,344.667206 137.037399,344.667206 
	C137.037399,335.669403 137.037399,326.752838 137.100128,317.359894 
z"/>
<path fill="#23455F" opacity="1.000000" stroke="none" 
	d="
M41.099365,267.468201 
	C48.303925,271.446655 55.444695,275.887756 62.790859,280.584351 
	C55.895729,280.839844 48.795204,280.839844 41.035576,280.839844 
	C41.035576,276.414307 41.035576,272.172577 41.099365,267.468201 
z"/>
<path fill="#244560" opacity="1.000000" stroke="none" 
	d="
M54.324707,233.105377 
	C55.491051,236.537445 54.312759,238.646332 51.054638,240.128448 
	C47.799377,241.609253 44.850540,243.763687 41.465973,245.750244 
	C41.164574,241.816803 41.164574,237.755890 41.164574,233.042419 
	C45.518887,233.042419 49.702465,233.042419 54.324707,233.105377 
z"/>
<path fill="#274660" opacity="1.000000" stroke="none" 
	d="
M120.901703,305.715546 
	C117.364204,303.367035 113.888680,300.546875 110.269272,297.445312 
	C113.563232,297.163879 117.001068,297.163879 120.963684,297.163879 
	C120.963684,300.050446 120.963684,302.647186 120.901703,305.715546 
z"/>
</svg>